<svg width="90" height="50" viewBox="0 0 90 50" fill="none" xmlns="http://www.w3.org/2000/svg">
<path d="M39.7567 44.5012L36.4669 35.5387C36.4669 35.5387 31.1001 41.5202 23.075 41.5202C15.9538 41.5202 10.9125 35.3366 10.9125 25.4393C10.9125 12.7772 17.3011 8.24679 23.5859 8.24679C32.6354 8.24679 35.5013 14.1105 37.9714 21.6415L41.2303 31.9345C44.4892 41.9301 50.6756 49.9579 68.4941 49.9579C81.2601 49.9579 89.9138 46.0534 89.9138 35.7323C89.9138 27.4013 85.1505 23.0702 76.317 21.0127L69.7376 19.5784C65.1791 18.537 63.8318 16.6816 63.8318 13.5968C63.8318 10.0909 66.5966 8.02785 71.141 8.02785C76.1009 8.02785 78.731 9.88323 79.1829 14.3154L89.4591 13.0691C88.6255 3.8034 82.206 0 71.7108 0C62.4255 0 53.3759 3.51148 53.3759 14.7224C53.3759 21.7397 56.7555 26.1663 65.2914 28.2153L72.2638 29.8686C77.4988 31.1121 79.2363 33.3043 79.2363 36.2881C79.2363 40.1027 75.5227 41.6802 68.4913 41.6802C58.0972 41.6802 53.7717 36.2264 51.3016 28.6981L47.922 18.4051C43.5965 5.03004 36.6802 0.0729805 22.9655 0.0729805C8.12525 0.0280695 0.0861816 9.57447 0.0861816 25.8744C0.0861816 41.5174 8.12526 50 22.5557 50C34.1765 50 39.7482 44.5461 39.7482 44.5461L39.7567 44.5012Z" fill="black"/>
</svg>
