<svg width="84" height="50" viewBox="0 0 84 50" fill="none" xmlns="http://www.w3.org/2000/svg">
<path d="M12.3404 0H3.15077C0.525156 0 0 1.23882 0 2.60487C0 5.04442 3.1155 17.1442 14.5062 33.1471C22.1 44.0758 32.7991 50 42.5349 50C48.3763 50 49.0989 48.6842 49.0989 46.4178V38.1579C49.0989 35.5263 49.6523 35.0011 51.5021 35.0011C52.865 35.0011 55.2017 35.6841 60.6538 40.9534C66.8846 47.1984 67.9118 50 71.4166 50H80.6062C83.2318 50 84.5447 48.6842 83.7873 46.0876C82.9586 43.4996 79.9837 39.7448 76.0363 35.2938C73.8943 32.7568 70.6816 30.0247 69.7079 28.6583C68.345 26.9021 68.7344 26.1213 69.7079 24.5602L69.8715 24.3278C71.2562 22.3552 80.9876 8.36906 82.0725 3.38567C82.6564 1.43406 82.0725 0 79.2934 0H70.1038C67.7672 0 66.69 1.23882 66.1057 2.60487C66.1057 2.60487 61.4325 14.0217 54.8122 21.4376C52.6704 23.5843 51.6967 24.2673 50.5284 24.2673C49.9443 24.2673 49.0988 23.5843 49.0988 21.6329V3.38567C49.0988 1.04374 48.4207 0 46.4733 0H32.0325C30.5723 0 29.6941 1.08695 29.6941 2.11709C29.6941 4.3372 33.0041 4.84918 33.3453 11.0943V24.6578C33.3453 27.6316 32.8094 28.1707 31.6411 28.1707C28.5258 28.1707 20.9477 16.7029 16.4533 3.58076C15.5724 1.03026 14.689 0 12.3404 0Z" fill="black"/>
</svg>
