<svg width="80" height="50" viewBox="0 0 80 50" fill="none" xmlns="http://www.w3.org/2000/svg">
<path d="M51.6764 49.9909L41.6083 26.6169C37.6192 34.3317 33.1995 42.349 29.4171 49.9787C29.3962 50.0182 27.5892 49.995 27.5884 49.9716C21.8078 36.6752 15.815 23.4664 10.0067 10.1803C8.65962 6.93248 3.94308 1.70777 0.716162 1.73748C0.714972 1.36009 0.697131 0.519231 0.691895 0.0092782L20.591 0L20.5775 1.70547C18.2404 1.81283 14.2026 3.28223 15.2478 5.82535C18.0537 11.7939 27.9842 34.9196 30.6681 40.7903C32.5417 37.1772 37.7715 27.5453 39.924 23.4728C38.2362 20.0588 32.6574 7.31015 30.9848 4.09875C29.7235 2.00593 26.5582 1.74944 24.1198 1.71355C24.1207 1.17582 24.1502 0.76438 24.1374 0.0296096L41.6322 0.0827182V1.64858C39.263 1.71341 37.0212 2.58197 38.0358 4.81321C40.3892 9.62849 41.7621 13.0556 43.9259 17.5086C44.617 16.2046 48.1503 9.05425 49.8367 5.27876C50.8562 2.771 49.3344 1.82964 45.0718 1.7167C45.1282 1.30408 45.0911 0.475405 45.1268 0.0805321C50.5666 0.0603411 58.7804 0.0415873 60.2349 0.0199591L60.2429 1.64951C57.4662 1.7557 54.594 3.21419 53.0934 5.47702L45.8182 20.3496C46.6171 22.3191 53.6108 37.6342 54.348 39.3327L69.3897 5.1151C68.3199 2.34387 64.9057 1.7252 63.5709 1.69397C63.5805 1.25338 63.5812 0.580143 63.585 0.0193488L79.2868 0.13708L79.3082 0.215298L79.2813 1.68682C75.8366 1.78914 73.7056 3.60465 72.4325 6.58124C69.3035 13.5482 59.7381 35.6146 53.3537 49.9958C53.3454 50.0037 51.6801 49.9934 51.6764 49.9909Z" fill="black"/>
</svg>
